<?xml version="1.0" encoding="utf-8"?>
<svg xmlns="http://www.w3.org/2000/svg" style="margin: auto; background: rgb(241, 242, 243); display: block; shape-rendering: auto;" width="280" height="250" preserveAspectRatio="xMidYMid">
<style type="text/css">
  text {
    text-anchor: middle; font-size: 42px; opacity: 0;
  }
</style>
<g style="transform-origin:140px 125px;transform:scale(1)">
<g transform="translate(140,125)">
  <g transform="translate(0,0)"><g class="path" style="transform: matrix(1, 0, 0, 1, 0, 0); transform-origin: -91.87px -3.49257px; animation: 1s linear -0.565714s infinite normal forwards running bounce-20fd0a26-0c0f-4284-9875-0a74d28469f0;"><path d="M7.12-20.26L7.12 0L3.34 0L3.34-29.53L8.63-29.53L26.58-9.25L26.58-29.53L30.33-29.53L30.33 0L25.04 0L7.12-20.26" fill="#220b09" stroke="none" stroke-width="none" transform="translate(-108.70498657226562,11.272428240094863)" style="fill: rgb(34, 11, 9);"></path></g><g class="path" style="transform: matrix(1, 0, 0, 1, 0, 0); transform-origin: -62.105px -3.49257px; animation: 1s linear -0.471429s infinite normal forwards running bounce-20fd0a26-0c0f-4284-9875-0a74d28469f0;"><path d="M50.67-25.76L50.67 0L42.53 0L42.53-25.76L34.49-25.76L34.49-29.53L58.71-29.53L58.71-25.76L50.67-25.76" fill="#220b09" stroke="none" stroke-width="none" transform="translate(-108.70498657226562,11.272428240094863)" style="fill: rgb(211, 76, 49);"></path></g><g class="path" style="transform: matrix(1, 0, 0, 1, 0, 0); transform-origin: -32.59px -3.49257px; animation: 1s linear -0.377143s infinite normal forwards running bounce-20fd0a26-0c0f-4284-9875-0a74d28469f0;"><path d="M71.02-11.03L71.02 0L62.88 0L62.88-29.53L78.83-29.53L78.83-29.53Q80.90-29.53 82.80-28.98L82.80-28.98L82.80-28.98Q84.70-28.42 86.15-27.31L86.15-27.31L86.15-27.31Q87.61-26.19 88.48-24.50L88.48-24.50L88.48-24.50Q89.35-22.80 89.35-20.53L89.35-20.53L89.35-20.53Q89.35-19.09 88.94-17.83L88.94-17.83L88.94-17.83Q88.53-16.57 87.80-15.52L87.80-15.52L87.80-15.52Q87.08-14.48 86.09-13.64L86.09-13.64L86.09-13.64Q85.11-12.80 83.94-12.22L83.94-12.22L83.94-12.22Q82.77-11.65 81.47-11.34L81.47-11.34L81.47-11.34Q80.17-11.03 78.83-11.03L78.83-11.03L71.02-11.03zM81.11-20.53L81.11-20.53L81.11-20.53Q81.11-23.38 79.66-25.01L79.66-25.01L79.66-25.01Q78.22-26.64 75.30-26.64L75.30-26.64L71.02-26.64L71.02-13.82L75.30-13.82L75.30-13.82Q76.86-13.82 77.96-14.32L77.96-14.32L77.96-14.32Q79.06-14.83 79.75-15.73L79.75-15.73L79.75-15.73Q80.45-16.63 80.78-17.85L80.78-17.85L80.78-17.85Q81.11-19.07 81.11-20.53" fill="#220b09" stroke="none" stroke-width="none" transform="translate(-108.70498657226562,11.272428240094863)" style="fill: rgb(232, 132, 50);"></path></g><g class="path" style="transform: matrix(1, 0, 0, 1, 0, 0); transform-origin: 10.28px -3.49257px; animation: 1s linear -0.282857s infinite normal forwards running bounce-20fd0a26-0c0f-4284-9875-0a74d28469f0;"><path d="M109.27-20.26L109.27 0L105.49 0L105.49-29.53L110.78-29.53L128.73-9.25L128.73-29.53L132.48-29.53L132.48 0L127.19 0L109.27-20.26" fill="#220b09" stroke="none" stroke-width="none" transform="translate(-108.70498657226562,11.272428240094863)" style="fill: rgb(255, 49, 45);"></path></g><g class="path" style="transform: matrix(1, 0, 0, 1, 0, 0); transform-origin: 40.265px -0.622572px; animation: 1s linear -0.188571s infinite normal forwards running bounce-20fd0a26-0c0f-4284-9875-0a74d28469f0;"><path d="M143.96-11.24L143.96-11.24L143.96-11.24Q145.24-10.95 146.51-10.79L146.51-10.79L146.51-10.79Q147.78-10.62 149.07-10.62L149.07-10.62L149.07-10.62Q150.42-10.62 151.58-10.88L151.58-10.88L151.58-10.88Q152.74-11.14 153.59-11.74L153.59-11.74L153.59-11.74Q154.44-12.35 154.94-13.35L154.94-13.35L154.94-13.35Q155.43-14.36 155.43-15.85L155.43-15.85L155.43-15.85Q155.43-17.06 155.10-18.07L155.10-18.07L155.10-18.07Q154.77-19.07 154.13-19.79L154.13-19.79L154.13-19.79Q153.48-20.51 152.54-20.91L152.54-20.91L152.54-20.91Q151.59-21.31 150.34-21.31L150.34-21.31L150.34-21.31Q149.17-21.31 148.24-20.88L148.24-20.88L148.24-20.88Q147.31-20.45 146.60-19.72L146.60-19.72L146.60-19.72Q145.89-18.99 145.39-18.03L145.39-18.03L145.39-18.03Q144.89-17.06 144.56-16.02L144.56-16.02L144.56-16.02Q144.23-14.97 144.09-13.90L144.09-13.90L144.09-13.90Q143.94-12.84 143.94-11.89L143.94-11.89L143.94-11.89Q143.94-11.73 143.94-11.57L143.94-11.57L143.94-11.57Q143.94-11.40 143.96-11.24zM161.05-15.91L161.05-15.91L161.05-15.91Q161.05-14.46 160.58-13.32L160.58-13.32L160.58-13.32Q160.10-12.18 159.29-11.32L159.29-11.32L159.29-11.32Q158.48-10.46 157.42-9.86L157.42-9.86L157.42-9.86Q156.35-9.27 155.14-8.89L155.14-8.89L155.14-8.89Q153.93-8.51 152.65-8.35L152.65-8.35L152.65-8.35Q151.37-8.18 150.16-8.18L150.16-8.18L150.16-8.18Q148.62-8.18 147.12-8.40L147.12-8.40L147.12-8.40Q145.63-8.61 144.17-9.08L144.17-9.08L144.17-9.08Q144.40-7.73 144.89-6.51L144.89-6.51L144.89-6.51Q145.38-5.29 146.20-4.38L146.20-4.38L146.20-4.38Q147.02-3.47 148.22-2.93L148.22-2.93L148.22-2.93Q149.42-2.40 151.06-2.40L151.06-2.40L151.06-2.40Q152.15-2.40 153.13-2.73L153.13-2.73L153.13-2.73Q154.12-3.06 154.94-3.65L154.94-3.65L154.94-3.65Q155.76-4.25 156.38-5.07L156.38-5.07L156.38-5.07Q157.01-5.89 157.40-6.89L157.40-6.89L160.39-5.78L160.39-5.78Q159.71-4.16 158.54-2.98L158.54-2.98L158.54-2.98Q157.36-1.80 155.87-1.04L155.87-1.04L155.87-1.04Q154.38-0.27 152.71 0.10L152.71 0.10L152.71 0.10Q151.04 0.47 149.40 0.47L149.40 0.47L149.40 0.47Q146.69 0.47 144.40-0.44L144.40-0.44L144.40-0.44Q142.10-1.35 140.44-2.99L140.44-2.99L140.44-2.99Q138.78-4.63 137.83-6.91L137.83-6.91L137.83-6.91Q136.89-9.19 136.89-11.89L136.89-11.89L136.89-11.89Q136.89-14.60 137.83-16.88L137.83-16.88L137.83-16.88Q138.78-19.15 140.44-20.79L140.44-20.79L140.44-20.79Q142.10-22.44 144.40-23.35L144.40-23.35L144.40-23.35Q146.69-24.26 149.40-24.26L149.40-24.26L149.40-24.26Q150.71-24.26 152.09-24.08L152.09-24.08L152.09-24.08Q153.46-23.89 154.75-23.49L154.75-23.49L154.75-23.49Q156.04-23.09 157.19-22.46L157.19-22.46L157.19-22.46Q158.34-21.82 159.19-20.89L159.19-20.89L159.19-20.89Q160.04-19.95 160.55-18.72L160.55-18.72L160.55-18.72Q161.05-17.49 161.05-15.91" fill="#220b09" stroke="none" stroke-width="none" transform="translate(-108.70498657226562,11.272428240094863)" style="fill: rgb(245, 192, 55);"></path></g><g class="path" style="transform: matrix(1, 0, 0, 1, 0, 0); transform-origin: 71.395px -0.572572px; animation: 1s linear -0.0942857s infinite normal forwards running bounce-20fd0a26-0c0f-4284-9875-0a74d28469f0;"><path d="M179.96-14.40L176.04 0L169.80 0L163.32-23.69L170.26-23.69L174.32-7.08L177.70-23.69L183.93-23.69L188.08-6.62L192.08-23.69L196.88-23.69L189.70 0L183.46 0L179.96-14.40" fill="#220b09" stroke="none" stroke-width="none" transform="translate(-108.70498657226562,11.272428240094863)" style="fill: rgb(232, 151, 136);"></path></g><g class="path" style="transform: matrix(1, 0, 0, 1, 0, 0); transform-origin: 101.1px -0.622572px; animation: 1s linear 0s infinite normal forwards running bounce-20fd0a26-0c0f-4284-9875-0a74d28469f0;"><path d="M220.75-7.57L220.75-7.57L220.75-7.57Q220.75-6.01 220.29-4.80L220.29-4.80L220.29-4.80Q219.84-3.59 219.06-2.70L219.06-2.70L219.06-2.70Q218.29-1.80 217.22-1.20L217.22-1.20L217.22-1.20Q216.15-0.59 214.93-0.23L214.93-0.23L214.93-0.23Q213.71 0.14 212.38 0.31L212.38 0.31L212.38 0.31Q211.05 0.47 209.73 0.47L209.73 0.47L209.73 0.47Q207.97 0.47 206.62 0.25L206.62 0.25L206.62 0.25Q205.26 0.02 204.03-0.48L204.03-0.48L204.03-0.48Q202.80-0.98 201.58-1.78L201.58-1.78L201.58-1.78Q200.36-2.58 198.86-3.73L198.86-3.73L202.90-7.03L202.90-7.03Q203.46-5.99 204.37-5.14L204.37-5.14L204.37-5.14Q205.28-4.29 206.27-3.67L206.27-3.67L206.27-3.67Q207.25-3.06 208.17-2.73L208.17-2.73L208.17-2.73Q209.10-2.40 209.67-2.40L209.67-2.40L209.67-2.40Q210.14-2.40 210.74-2.43L210.74-2.43L210.74-2.43Q211.33-2.46 211.95-2.55L211.95-2.55L211.95-2.55Q212.56-2.65 213.16-2.83L213.16-2.83L213.16-2.83Q213.75-3.01 214.21-3.33L214.21-3.33L214.21-3.33Q214.68-3.65 214.95-4.13L214.95-4.13L214.95-4.13Q215.23-4.61 215.23-5.29L215.23-5.29L215.23-5.29Q215.23-5.99 214.87-6.51L214.87-6.51L214.87-6.51Q214.51-7.03 213.94-7.42L213.94-7.42L213.94-7.42Q213.36-7.81 212.63-8.08L212.63-8.08L212.63-8.08Q211.89-8.35 211.14-8.55L211.14-8.55L211.14-8.55Q210.39-8.76 209.69-8.91L209.69-8.91L209.69-8.91Q209.00-9.06 208.48-9.21L208.48-9.21L208.48-9.21Q207.54-9.47 206.49-9.75L206.49-9.75L206.49-9.75Q205.45-10.03 204.42-10.39L204.42-10.39L204.42-10.39Q203.40-10.75 202.46-11.24L202.46-11.24L202.46-11.24Q201.53-11.73 200.82-12.42L200.82-12.42L200.82-12.42Q200.12-13.10 199.69-14.04L199.69-14.04L199.69-14.04Q199.27-14.97 199.27-16.22L199.27-16.22L199.27-16.22Q199.27-18.52 200.19-20.07L200.19-20.07L200.19-20.07Q201.10-21.62 202.60-22.55L202.60-22.55L202.60-22.55Q204.09-23.48 206.00-23.87L206.00-23.87L206.00-23.87Q207.91-24.26 209.88-24.26L209.88-24.26L209.88-24.26Q211.23-24.26 212.73-23.98L212.73-23.98L212.73-23.98Q214.22-23.71 215.64-23.16L215.64-23.16L215.64-23.16Q217.05-22.62 218.29-21.84L218.29-21.84L218.29-21.84Q219.52-21.06 220.34-20.06L220.34-20.06L216.30-16.73L216.30-16.73Q215.84-17.96 215.12-18.85L215.12-18.85L215.12-18.85Q214.39-19.73 213.54-20.29L213.54-20.29L213.54-20.29Q212.69-20.86 211.79-21.12L211.79-21.12L211.79-21.12Q210.90-21.39 210.14-21.39L210.14-21.39L210.14-21.39Q209.41-21.39 208.48-21.33L208.48-21.33L208.48-21.33Q207.56-21.27 206.75-20.98L206.75-20.98L206.75-20.98Q205.94-20.69 205.38-20.11L205.38-20.11L205.38-20.11Q204.81-19.52 204.81-18.50L204.81-18.50L204.81-18.50Q204.81-17.76 205.15-17.24L205.15-17.24L205.15-17.24Q205.49-16.71 206.04-16.33L206.04-16.33L206.04-16.33Q206.60-15.96 207.30-15.70L207.30-15.70L207.30-15.70Q208.01-15.44 208.75-15.25L208.75-15.25L208.75-15.25Q209.49-15.05 210.18-14.91L210.18-14.91L210.18-14.91Q210.88-14.77 211.44-14.60L211.44-14.60L211.44-14.60Q212.38-14.33 213.44-14.06L213.44-14.06L213.44-14.06Q214.49-13.78 215.52-13.42L215.52-13.42L215.52-13.42Q216.54-13.06 217.50-12.58L217.50-12.58L217.50-12.58Q218.45-12.10 219.17-11.40L219.17-11.40L219.17-11.40Q219.88-10.71 220.32-9.77L220.32-9.77L220.32-9.77Q220.75-8.84 220.75-7.57" fill="#220b09" stroke="none" stroke-width="none" transform="translate(-108.70498657226562,11.272428240094863)" style="fill: rgb(253, 50, 98);"></path></g></g>
</g>
</g>
<style id="bounce-20fd0a26-0c0f-4284-9875-0a74d28469f0" data-anikit="">@keyframes bounce-20fd0a26-0c0f-4284-9875-0a74d28469f0
{
  0% {
    animation-timing-function: cubic-bezier(0.1361,0.2514,0.2175,0.8786);
    transform: translate(0,0px) scaleY(1);
  }
  37% {
    animation-timing-function: cubic-bezier(0.7674,0.1844,0.8382,0.7157);
    transform: translate(0,-39.96px) scaleY(1);
  }
  72% {
    animation-timing-function: cubic-bezier(0.1118,0.2149,0.2172,0.941);
    transform: translate(0,0px) scaleY(1);
  }
  87% {
    animation-timing-function: cubic-bezier(0.7494,0.2259,0.8209,0.6963);
    transform: translate(0,19.900000000000002px) scaleY(0.602);
  }
  100% {
    transform: translate(0,0px) scaleY(1);
  }
}</style></svg>